<svg xmlns="http://www.w3.org/2000/svg" xmlns:xlink="http://www.w3.org/1999/xlink" width="600" zoomAndPan="magnify" viewBox="0 0 450 375.749991" height="501" preserveAspectRatio="xMidYMid meet" version="1.0"><defs><g/><clipPath id="3b7e118109"><path d="M 111 225 L 222 225 L 222 266 L 111 266 Z M 111 225 " clip-rule="nonzero"/></clipPath><clipPath id="b090b47133"><path d="M 143.179688 300.34375 L 109.085938 243.882812 L 188.003906 196.226562 L 222.097656 252.6875 Z M 143.179688 300.34375 " clip-rule="nonzero"/></clipPath><clipPath id="15a23f9572"><path d="M 143.179688 300.34375 L 109.085938 243.882812 L 188.003906 196.226562 L 222.097656 252.6875 Z M 143.179688 300.34375 " clip-rule="nonzero"/></clipPath><clipPath id="5b92d9c638"><path d="M 75.101562 197.703125 L 374.898438 197.703125 L 374.898438 218.179688 L 75.101562 218.179688 Z M 75.101562 197.703125 " clip-rule="nonzero"/></clipPath></defs><g fill="#000000" fill-opacity="1"><g transform="translate(134.814274, 197.79423)"><g><path d="M 7.140625 0 L 72.257812 0 L 73.238281 -15.824219 L 71.699219 -16.105469 C 66.796875 -5.601562 60.636719 -2.242188 47.191406 -2.242188 L 30.527344 -2.242188 C 26.46875 -2.242188 24.226562 -4.480469 24.226562 -8.542969 L 24.226562 -80.242188 C 24.226562 -91.722656 25.488281 -94.945312 29.828125 -96.207031 L 29.828125 -98.027344 L 7.140625 -98.027344 L 7.140625 -96.207031 C 11.34375 -94.945312 12.742188 -91.722656 12.742188 -80.242188 L 12.742188 -17.785156 C 12.742188 -6.300781 11.34375 -3.082031 7.140625 -1.820312 Z M 7.140625 0 "/></g></g></g><g fill="#000000" fill-opacity="1"><g transform="translate(201.332513, 253.405534)"><g><path d="M 97.464844 24.507812 C 104.746094 24.507812 110.769531 18.484375 117.492188 10.644531 L 116.371094 9.664062 C 112.730469 13.445312 108.25 15.542969 101.808594 15.542969 C 90.464844 15.542969 79.539062 8.824219 68.339844 0.28125 C 88.222656 -3.921875 106.707031 -19.464844 106.707031 -48.59375 C 106.707031 -82.902344 80.800781 -99.144531 57.136719 -99.144531 C 27.445312 -99.144531 7.28125 -77.859375 7.28125 -49.152344 C 7.28125 -14.421875 33.328125 1.398438 57.136719 1.398438 C 59.9375 1.398438 62.875 1.121094 65.816406 0.699219 C 72.539062 9.523438 85.140625 24.507812 97.464844 24.507812 Z M 18.484375 -57.273438 C 17.644531 -80.101562 30.109375 -95.925781 51.394531 -95.925781 C 76.460938 -95.925781 94.804688 -68.617188 95.785156 -39.351562 C 96.484375 -18.34375 85.421875 -2.101562 63.015625 -2.101562 C 37.949219 -2.101562 19.464844 -29.128906 18.484375 -57.273438 Z M 18.484375 -57.273438 "/></g></g></g><g clip-path="url(#3b7e118109)"><g clip-path="url(#b090b47133)"><g clip-path="url(#15a23f9572)"><path fill="#000000" d="M 111.007812 243.394531 C 111.046875 243.746094 111.300781 244.027344 111.640625 244.09375 C 112.949219 244.351562 114.226562 244.753906 115.574219 245.179688 C 118.398438 246.078125 121.316406 247 124.734375 246.546875 C 129.539062 245.917969 132.566406 245.335938 134.488281 244.832031 C 133.003906 246.109375 130.753906 248.359375 127.292969 252.34375 C 125.03125 254.9375 124.183594 257.890625 123.367188 260.738281 C 122.980469 262.113281 122.609375 263.390625 122.09375 264.632812 C 121.960938 264.957031 122.054688 265.328125 122.328125 265.554688 C 122.601562 265.78125 122.984375 265.792969 123.285156 265.59375 C 124.117188 265.027344 125.0625 264.441406 126.015625 263.835938 C 127.816406 262.703125 129.675781 261.527344 131.019531 260.433594 C 137.570312 255.082031 139.515625 250.445312 137.949219 243.878906 C 137.933594 243.824219 137.910156 243.785156 137.890625 243.734375 C 141.90625 242.5 157.253906 238.527344 180.226562 241.496094 C 178.558594 242.101562 175.578125 243.589844 170.101562 247.015625 C 167.175781 248.847656 165.507812 251.421875 163.886719 253.910156 C 163.113281 255.097656 162.386719 256.21875 161.535156 257.25 C 161.308594 257.523438 161.304688 257.898438 161.484375 258.199219 C 161.683594 258.496094 162.046875 258.625 162.386719 258.519531 C 163.347656 258.21875 164.417969 257.929688 165.507812 257.636719 C 167.554688 257.074219 169.671875 256.496094 171.28125 255.84375 C 179.109375 252.625 182.328125 248.753906 182.757812 242.015625 C 182.761719 241.945312 182.746094 241.902344 182.742188 241.851562 C 191.734375 243.183594 201.824219 245.582031 212.804688 249.582031 C 211.324219 249.4375 208.054688 249.664062 200.574219 251.242188 C 197.203125 251.957031 194.742188 253.796875 192.367188 255.578125 C 191.230469 256.425781 190.160156 257.230469 189.003906 257.910156 C 188.699219 258.085938 188.546875 258.441406 188.625 258.785156 C 188.707031 259.132812 189 259.375 189.359375 259.394531 C 190.363281 259.445312 191.464844 259.542969 192.59375 259.636719 C 194.707031 259.816406 196.886719 260 198.625 259.933594 C 207.066406 259.617188 211.421875 257.078125 214.164062 250.898438 C 214.320312 250.558594 214.234375 250.300781 214.140625 250.144531 C 214.121094 250.113281 214.101562 250.078125 214.078125 250.058594 C 214.074219 250.050781 214.070312 250.042969 214.066406 250.039062 C 216.515625 250.953125 219.007812 251.941406 221.539062 253.023438 L 221.851562 252.308594 C 214.074219 248.988281 206.679688 246.480469 199.742188 244.601562 C 199.785156 244.507812 199.824219 244.40625 199.832031 244.265625 C 200.070312 240.976562 199.5625 238.28125 198.121094 235.894531 C 196.613281 233.402344 194.085938 231.25 190.347656 229.121094 C 188.839844 228.265625 186.824219 227.425781 184.867188 226.613281 C 183.832031 226.183594 182.8125 225.753906 181.894531 225.34375 C 181.566406 225.195312 181.191406 225.273438 180.953125 225.546875 C 180.722656 225.816406 180.695312 226.222656 180.867188 226.492188 C 181.566406 227.625 182.136719 228.828125 182.742188 230.101562 C 184.007812 232.769531 185.308594 235.53125 187.953125 237.710938 C 191.597656 240.714844 194.058594 242.515625 195.722656 243.574219 C 184.464844 240.855469 174.480469 239.804688 166.070312 239.648438 C 166.179688 239.511719 166.269531 239.292969 166.195312 238.972656 C 165.78125 237.101562 165.179688 235.5 164.34375 234.121094 C 162.238281 230.632812 158.636719 228.546875 152.746094 227.191406 C 151.054688 226.800781 148.871094 226.574219 146.761719 226.355469 C 145.648438 226.234375 144.542969 226.121094 143.550781 225.992188 C 143.195312 225.941406 142.855469 226.128906 142.710938 226.453125 C 142.554688 226.773438 142.636719 227.152344 142.90625 227.382812 C 143.902344 228.261719 144.792969 229.253906 145.738281 230.300781 C 147.714844 232.496094 149.765625 234.769531 152.929688 236.097656 C 157.738281 238.117188 160.734375 239.148438 162.625 239.644531 C 149.75 239.777344 141.089844 241.957031 137.902344 242.90625 C 137.898438 242.792969 137.871094 242.660156 137.789062 242.519531 C 137.757812 242.46875 137.714844 242.410156 137.660156 242.351562 C 133.066406 237.417969 128.128906 236.476562 120.050781 238.972656 C 118.390625 239.484375 116.378906 240.386719 114.445312 241.261719 C 113.417969 241.730469 112.410156 242.183594 111.476562 242.5625 C 111.179688 242.707031 110.976562 243.039062 111.007812 243.394531 Z M 171 255.121094 C 169.4375 255.761719 167.339844 256.339844 165.316406 256.886719 C 164.222656 257.183594 163.140625 257.480469 162.152344 257.753906 C 163.035156 256.683594 163.804688 255.488281 164.554688 254.335938 C 166.128906 251.917969 167.75 249.417969 170.527344 247.679688 C 178.714844 242.554688 181.59375 241.652344 181.996094 241.910156 C 181.996094 241.910156 182.003906 241.921875 182 241.960938 C 181.582031 248.347656 178.5 252.039062 171 255.121094 Z M 213.492188 250.539062 C 213.492188 250.539062 213.492188 250.558594 213.476562 250.59375 C 210.882812 256.457031 206.722656 258.859375 198.628906 259.167969 C 196.945312 259.230469 194.785156 259.050781 192.6875 258.871094 C 191.558594 258.769531 190.445312 258.675781 189.425781 258.59375 C 190.621094 257.886719 191.761719 257.035156 192.859375 256.210938 C 195.164062 254.480469 197.554688 252.691406 200.753906 252.015625 C 210.195312 250.007812 213.207031 250.15625 213.492188 250.539062 Z M 188.488281 237.125 C 185.972656 235.058594 184.710938 232.371094 183.484375 229.78125 C 182.898438 228.539062 182.296875 227.265625 181.597656 226.066406 C 182.519531 226.484375 183.546875 226.914062 184.59375 227.34375 C 186.527344 228.152344 188.53125 228.980469 189.988281 229.8125 C 197.003906 233.804688 199.546875 237.847656 199.074219 244.226562 L 199.46875 244.253906 L 199.082031 244.269531 C 198.628906 244.488281 195.902344 243.234375 188.488281 237.125 Z M 153.265625 235.394531 C 150.261719 234.132812 148.277344 231.925781 146.351562 229.796875 C 145.4375 228.785156 144.488281 227.726562 143.476562 226.78125 C 144.484375 226.917969 145.589844 227.035156 146.710938 227.148438 C 148.800781 227.363281 150.953125 227.589844 152.601562 227.96875 C 160.476562 229.792969 164.085938 232.929688 165.460938 239.171875 L 165.484375 239.203125 C 165.140625 239.519531 162.152344 239.132812 153.265625 235.394531 Z M 137.167969 244.015625 C 137.167969 244.015625 137.179688 244.027344 137.191406 244.066406 C 138.671875 250.277344 136.808594 254.699219 130.527344 259.828125 C 129.222656 260.898438 127.378906 262.058594 125.601562 263.175781 C 124.640625 263.785156 123.6875 264.378906 122.820312 264.929688 C 123.351562 263.652344 123.746094 262.285156 124.121094 260.96875 C 124.914062 258.203125 125.738281 255.339844 127.882812 252.871094 C 133.363281 246.566406 135.96875 244.449219 136.867188 244.078125 C 136.894531 244.070312 136.914062 244.058594 136.960938 244.046875 C 137.050781 244.011719 137.125 244.003906 137.167969 244.015625 Z M 114.796875 241.980469 C 116.710938 241.117188 118.699219 240.222656 120.3125 239.722656 C 128.054688 237.324219 132.765625 238.207031 137.113281 242.890625 L 137.148438 242.917969 C 137.007812 243.394531 134.203125 244.53125 124.640625 245.785156 C 121.398438 246.210938 118.566406 245.308594 115.816406 244.441406 C 114.503906 244.03125 113.15625 243.597656 111.800781 243.296875 C 112.742188 242.910156 113.761719 242.449219 114.796875 241.980469 Z M 114.796875 241.980469 " fill-opacity="1" fill-rule="nonzero"/></g></g></g><g clip-path="url(#5b92d9c638)"><path fill="#ffffff" d="M 75.101562 197.703125 L 375.484375 197.703125 L 375.484375 218.78125 L 75.101562 218.78125 Z M 75.101562 197.703125 " fill-opacity="1" fill-rule="nonzero"/></g><g fill="#000000" fill-opacity="1"><g transform="translate(142.287892, 214.072645)"><g><path d="M 1.003906 0 L 10.171875 0 L 10.308594 -2.226562 L 10.09375 -2.265625 C 9.402344 -0.789062 8.535156 -0.316406 6.644531 -0.316406 L 4.296875 -0.316406 C 3.726562 -0.316406 3.410156 -0.628906 3.410156 -1.203125 L 3.410156 -11.292969 C 3.410156 -12.910156 3.585938 -13.363281 4.199219 -13.542969 L 4.199219 -13.796875 L 1.003906 -13.796875 L 1.003906 -13.542969 C 1.597656 -13.363281 1.792969 -12.910156 1.792969 -11.292969 L 1.792969 -2.503906 C 1.792969 -0.886719 1.597656 -0.433594 1.003906 -0.257812 Z M 1.003906 0 "/></g></g></g><g fill="#000000" fill-opacity="1"><g transform="translate(157.879008, 214.072645)"><g><path d="M -0.335938 0 L 1.890625 0 L 1.890625 -0.257812 C 1.222656 -0.394531 1.144531 -1.042969 1.65625 -2.324219 L 2.820312 -5.203125 L 8.378906 -5.203125 L 9.578125 -2.304688 C 10.210938 -0.828125 10.367188 -0.433594 9.757812 -0.257812 L 9.757812 0 L 12.8125 0 L 12.8125 -0.257812 C 12.398438 -0.433594 11.925781 -0.828125 11.316406 -2.304688 L 6.464844 -13.957031 L 4.988281 -13.285156 L 5.164062 -12.871094 C 5.320312 -12.554688 5.34375 -12.300781 5.203125 -11.945312 L 1.320312 -2.324219 C 0.710938 -0.828125 0.21875 -0.433594 -0.335938 -0.257812 Z M 2.9375 -5.5 L 5.558594 -11.984375 L 8.257812 -5.5 Z M 2.9375 -5.5 "/></g></g></g><g fill="#000000" fill-opacity="1"><g transform="translate(175.401654, 214.072645)"><g><path d="M 1.003906 0 L 4.199219 0 L 4.199219 -0.257812 C 3.585938 -0.433594 3.410156 -0.886719 3.410156 -2.503906 L 3.410156 -11.292969 C 3.410156 -12.910156 3.585938 -13.363281 4.199219 -13.542969 L 4.199219 -13.796875 L 1.003906 -13.796875 L 1.003906 -13.542969 C 1.597656 -13.363281 1.792969 -12.910156 1.792969 -11.292969 L 1.792969 -2.503906 C 1.792969 -0.886719 1.597656 -0.433594 1.003906 -0.257812 Z M 1.003906 0 "/></g></g></g><g fill="#000000" fill-opacity="1"><g transform="translate(185.493811, 214.072645)"><g><path d="M 1.003906 0 L 10.171875 0 L 10.308594 -2.226562 L 10.09375 -2.265625 C 9.402344 -0.789062 8.535156 -0.316406 6.644531 -0.316406 L 4.296875 -0.316406 C 3.726562 -0.316406 3.410156 -0.628906 3.410156 -1.203125 L 3.410156 -11.292969 C 3.410156 -12.910156 3.585938 -13.363281 4.199219 -13.542969 L 4.199219 -13.796875 L 1.003906 -13.796875 L 1.003906 -13.542969 C 1.597656 -13.363281 1.792969 -12.910156 1.792969 -11.292969 L 1.792969 -2.503906 C 1.792969 -0.886719 1.597656 -0.433594 1.003906 -0.257812 Z M 1.003906 0 "/></g></g></g><g fill="#000000" fill-opacity="1"><g transform="translate(201.084927, 214.072645)"><g><path d="M -0.335938 0 L 1.890625 0 L 1.890625 -0.257812 C 1.222656 -0.394531 1.144531 -1.042969 1.65625 -2.324219 L 2.820312 -5.203125 L 8.378906 -5.203125 L 9.578125 -2.304688 C 10.210938 -0.828125 10.367188 -0.433594 9.757812 -0.257812 L 9.757812 0 L 12.8125 0 L 12.8125 -0.257812 C 12.398438 -0.433594 11.925781 -0.828125 11.316406 -2.304688 L 6.464844 -13.957031 L 4.988281 -13.285156 L 5.164062 -12.871094 C 5.320312 -12.554688 5.34375 -12.300781 5.203125 -11.945312 L 1.320312 -2.324219 C 0.710938 -0.828125 0.21875 -0.433594 -0.335938 -0.257812 Z M 2.9375 -5.5 L 5.558594 -11.984375 L 8.257812 -5.5 Z M 2.9375 -5.5 "/></g></g></g><g fill="#000000" fill-opacity="1"><g transform="translate(218.607573, 214.072645)"><g/></g></g><g fill="#000000" fill-opacity="1"><g transform="translate(227.635418, 214.072645)"><g><path d="M 13.71875 3.449219 C 14.746094 3.449219 15.59375 2.601562 16.539062 1.5 L 16.378906 1.359375 C 15.867188 1.890625 15.238281 2.1875 14.332031 2.1875 C 12.734375 2.1875 11.195312 1.242188 9.621094 0.0390625 C 12.417969 -0.550781 15.019531 -2.738281 15.019531 -6.839844 C 15.019531 -11.667969 11.375 -13.957031 8.042969 -13.957031 C 3.863281 -13.957031 1.023438 -10.960938 1.023438 -6.917969 C 1.023438 -2.03125 4.691406 0.195312 8.042969 0.195312 C 8.4375 0.195312 8.851562 0.15625 9.265625 0.0976562 C 10.210938 1.339844 11.984375 3.449219 13.71875 3.449219 Z M 2.601562 -8.0625 C 2.484375 -11.273438 4.238281 -13.503906 7.234375 -13.503906 C 10.761719 -13.503906 13.34375 -9.660156 13.484375 -5.539062 C 13.582031 -2.582031 12.023438 -0.296875 8.871094 -0.296875 C 5.34375 -0.296875 2.738281 -4.101562 2.601562 -8.0625 Z M 2.601562 -8.0625 "/></g></g></g><g fill="#000000" fill-opacity="1"><g transform="translate(248.548111, 214.072645)"><g><path d="M -0.335938 0 L 1.890625 0 L 1.890625 -0.257812 C 1.222656 -0.394531 1.144531 -1.042969 1.65625 -2.324219 L 2.820312 -5.203125 L 8.378906 -5.203125 L 9.578125 -2.304688 C 10.210938 -0.828125 10.367188 -0.433594 9.757812 -0.257812 L 9.757812 0 L 12.8125 0 L 12.8125 -0.257812 C 12.398438 -0.433594 11.925781 -0.828125 11.316406 -2.304688 L 6.464844 -13.957031 L 4.988281 -13.285156 L 5.164062 -12.871094 C 5.320312 -12.554688 5.34375 -12.300781 5.203125 -11.945312 L 1.320312 -2.324219 C 0.710938 -0.828125 0.21875 -0.433594 -0.335938 -0.257812 Z M 2.9375 -5.5 L 5.558594 -11.984375 L 8.257812 -5.5 Z M 2.9375 -5.5 "/></g></g></g><g fill="#000000" fill-opacity="1"><g transform="translate(266.070757, 214.072645)"><g><path d="M 1.003906 0 L 6.167969 0 C 10.507812 0 13.304688 -2.996094 13.285156 -7.15625 C 13.265625 -10.347656 11.136719 -13.796875 5.714844 -13.796875 L 1.003906 -13.796875 L 1.003906 -13.542969 C 1.597656 -13.363281 1.792969 -12.910156 1.792969 -11.292969 L 1.792969 -2.503906 C 1.792969 -0.886719 1.597656 -0.433594 1.003906 -0.257812 Z M 3.410156 -1.734375 L 3.410156 -13.503906 L 4.75 -13.503906 C 9.144531 -13.503906 11.492188 -10.308594 11.492188 -6.367188 C 11.492188 -2.246094 9.578125 -0.296875 6.128906 -0.296875 L 4.691406 -0.296875 C 3.605469 -0.296875 3.410156 -0.808594 3.410156 -1.734375 Z M 3.410156 -1.734375 "/></g></g></g><g fill="#000000" fill-opacity="1"><g transform="translate(285.249006, 214.072645)"><g><path d="M 11.039062 0.136719 C 11.433594 0.136719 11.945312 0.0976562 12.242188 0 L 12.242188 -0.238281 C 12.140625 -0.21875 12.042969 -0.21875 11.925781 -0.21875 C 11.253906 -0.21875 10.859375 -0.867188 9.914062 -3.234375 C 8.96875 -5.65625 8.59375 -6.859375 6.167969 -7.175781 C 8.730469 -7.472656 10.074219 -8.871094 10.074219 -10.722656 C 10.074219 -12.476562 8.890625 -13.796875 4.886719 -13.796875 L 1.003906 -13.796875 L 1.003906 -13.542969 C 1.617188 -13.363281 1.792969 -12.910156 1.792969 -11.292969 L 1.792969 -2.503906 C 1.792969 -0.886719 1.617188 -0.433594 1.003906 -0.257812 L 1.003906 0 L 4.199219 0 L 4.199219 -0.257812 C 3.585938 -0.433594 3.410156 -0.886719 3.410156 -2.503906 L 3.410156 -7.117188 L 4.671875 -7.117188 C 7.039062 -7.117188 7.195312 -5.734375 8.339844 -3.015625 C 9.207031 -0.964844 9.519531 0.136719 11.039062 0.136719 Z M 3.410156 -7.410156 L 3.410156 -13.464844 C 3.726562 -13.484375 4.039062 -13.503906 4.335938 -13.503906 C 7.253906 -13.503906 8.398438 -12.023438 8.398438 -10.269531 C 8.398438 -8.59375 7.332031 -7.410156 5.066406 -7.410156 Z M 3.410156 -7.410156 "/></g></g></g><g fill="#000000" fill-opacity="1"><g transform="translate(302.200079, 214.072645)"><g><path d="M 1.003906 0 L 4.199219 0 L 4.199219 -0.257812 C 3.585938 -0.433594 3.410156 -0.886719 3.410156 -2.503906 L 3.410156 -11.292969 C 3.410156 -12.910156 3.585938 -13.363281 4.199219 -13.542969 L 4.199219 -13.796875 L 1.003906 -13.796875 L 1.003906 -13.542969 C 1.597656 -13.363281 1.792969 -12.910156 1.792969 -11.292969 L 1.792969 -2.503906 C 1.792969 -0.886719 1.597656 -0.433594 1.003906 -0.257812 Z M 1.003906 0 "/></g></g></g></svg>